# This file is brought to you by Roblox Corporation
# Generated by Roblox Studio

mtllib Zombie Fcae.mtl

g Handle1

v -32.7125 -4.40874 -43.8959 
v -32.6902 -4.47626 -44.025 
v -32.6323 -4.40874 -43.9423 
v -32.8056 -4.49996 -44.0969 
v -32.7586 -4.49996 -44.1241 
v -32.9372 -4.49996 -44.3778 
v -32.6327 -4.47626 -44.0733 
v -32.5613 -4.40874 -44.0018 
v -32.717 -4.49996 -44.159 
v -32.5017 -4.40874 -44.0728 
v -32.5845 -4.47626 -44.1308 
v -32.6821 -4.49996 -44.2006 
v -32.4554 -4.40874 -44.1531 
v -32.5469 -4.47626 -44.1958 
v -32.655 -4.49996 -44.2476 
v -32.4237 -4.40874 -44.2402 
v -32.5213 -4.47626 -44.2663 
v -32.6364 -4.49996 -44.2986 
v -32.5082 -4.47626 -44.3403 
v -32.627 -4.49996 -44.3521 
v -32.4076 -4.40874 -44.3314 
v -32.5082 -4.47626 -44.4153 
v -32.627 -4.49996 -44.4063 
v -32.4076 -4.40874 -44.4241 
v -32.5213 -4.47626 -44.4892 
v -32.6364 -4.49996 -44.4598 
v -32.4237 -4.40874 -44.5154 
v -32.5469 -4.47626 -44.5598 
v -32.655 -4.49996 -44.5108 
v -32.4554 -4.40874 -44.6025 
v -32.5845 -4.47626 -44.6248 
v -32.6821 -4.49996 -44.5578 
v -32.6327 -4.47626 -44.6823 
v -32.5017 -4.40874 -44.6827 
v -32.3585 -4.3077 -44.5329 
v -32.3942 -4.3077 -44.631 
v -32.3403 -4.3077 -44.43 
v -32.5017 -3.34537 -44.0728 
v -32.5469 -3.27786 -44.1958 
v -32.5845 -3.27786 -44.1308 
v -32.5613 -3.34537 -44.0018 
v -32.6564 -3.25415 -44.2462 
v -32.6378 -3.25415 -44.2972 
v -32.6327 -3.27786 -44.0733 
v -32.9373 -3.25415 -44.3778 
v -32.6323 -3.34537 -43.9423 
v -32.6835 -3.25415 -44.1991 
v -32.6902 -3.27786 -44.025 
v -32.7184 -3.25415 -44.1576 
v -32.7125 -3.34537 -43.8959 
v -32.76 -3.25415 -44.1227 
v -32.7552 -3.27786 -43.9875 
v -32.7996 -3.34537 -43.8642 
v -32.807 -3.25415 -44.0955 
v -32.8258 -3.27786 -43.9618 
v -32.8909 -3.34537 -43.8481 
v -32.858 -3.25415 -44.0769 
v -32.8997 -3.27786 -43.9488 
v -32.9836 -3.34537 -43.8481 
v -32.9115 -3.25415 -44.0675 
v -32.9748 -3.27786 -43.9488 
v -33.0748 -3.34537 -43.8642 
v -32.9658 -3.25415 -44.0675 
v -33.0487 -3.27786 -43.9618 
v -33.1619 -3.34537 -43.8959 
v -33.0193 -3.25415 -44.0769 
v -33.1192 -3.27786 -43.9875 
v -33.2422 -3.34537 -43.9423 
v -33.1842 -3.27786 -44.025 
v -33.0703 -3.25415 -44.0955 
v -33.1173 -3.25415 -44.1227 
v -33.516 -4.3077 -44.5329 
v -33.4191 -4.40874 -44.6025 
v -33.4508 -4.40874 -44.5154 
v -33.5578 -4.18851 -44.4321 
v -33.5341 -4.3077 -44.43 
v -33.5341 -4.3077 -44.3256 
v -33.5578 -4.18851 -44.3235 
v -33.516 -4.3077 -44.2227 
v -33.4508 -4.40874 -44.2402 
v -33.3275 -4.47626 -44.5598 
v -33.29 -4.47626 -44.6248 
v -33.4669 -4.40874 -44.3314 
v -33.4669 -4.40874 -44.4241 
v -33.3532 -4.47626 -44.4892 
v -33.2195 -4.49996 -44.5108 
v -33.2381 -4.49996 -44.4598 
v -33.3662 -4.47626 -44.4153 
v -33.2475 -4.49996 -44.4063 
v -33.1924 -4.49996 -44.5578 
v -33.2417 -4.47626 -44.6823 
v -33.3662 -4.47626 -44.3403 
v -33.2475 -4.49996 -44.3521 
v -33.1575 -4.49996 -44.5994 
v -33.3532 -4.47626 -44.2663 
v -33.3275 -4.47626 -44.1958 
v -33.2381 -4.49996 -44.2986 
v -33.2195 -4.49996 -44.2476 
v -33.1924 -4.49996 -44.2006 
v -33.1842 -4.47626 -44.7305 
v -33.2422 -4.40874 -44.8133 
v -33.1619 -4.40874 -44.8597 
v -33.1159 -4.49996 -44.6343 
v -33.1192 -4.47626 -44.7681 
v -33.0487 -4.47626 -44.7938 
v -33.0689 -4.49996 -44.6615 
v -33.0178 -4.49996 -44.68 
v -32.9748 -4.47626 -44.8068 
v -32.9644 -4.49996 -44.6895 
v -32.8997 -4.47626 -44.8068 
v -32.9101 -4.49996 -44.6895 
v -32.8566 -4.49996 -44.68 
v -32.8258 -4.47626 -44.7938 
v -32.8056 -4.49996 -44.6615 
v -32.7552 -4.47626 -44.7681 
v -32.7125 -4.40874 -44.8597 
v -32.7586 -4.49996 -44.6343 
v -32.6902 -4.47626 -44.7305 
v -32.6323 -4.40874 -44.8133 
v -32.717 -4.49996 -44.5994 
v -33.2809 -4.3077 -43.887 
v -33.3132 -4.40874 -44.0018 
v -33.2422 -4.40874 -43.9423 
v -33.3609 -4.3077 -43.9541 
v -33.1905 -4.3077 -43.8347 
v -33.1619 -4.40874 -43.8959 
v -33.2945 -4.18851 -43.8675 
v -33.3777 -4.18851 -43.9373 
v -33.3777 -3.5656 -43.9373 
v -33.2005 -4.18851 -43.8132 
v -33.2945 -3.5656 -43.8675 
v -33.3609 -3.44642 -43.9541 
v -33.0923 -4.3077 -43.799 
v -33.0748 -4.40874 -43.8642 
v -33.0985 -4.18851 -43.7761 
v -33.2005 -3.5656 -43.8132 
v -33.2809 -3.44642 -43.887 
v -33.3132 -3.34537 -44.0018 
v -33.2422 -3.34537 -43.9423 
v -33.1905 -3.44642 -43.8347 
v -33.1619 -3.34537 -43.8959 
v -33.0985 -3.5656 -43.7761 
v -33.0923 -3.44642 -43.799 
v -33.0748 -3.34537 -43.8642 
v -32.9915 -4.18851 -43.7572 
v -32.9915 -3.5656 -43.7572 
v -32.9895 -3.44642 -43.7809 
v -32.9836 -3.34537 -43.8481 
v -32.8829 -3.5656 -43.7572 
v -32.885 -3.44642 -43.7809 
v -32.8909 -3.34537 -43.8481 
v -32.7996 -3.34537 -43.8642 
v -32.7822 -3.44642 -43.799 
v -32.7125 -3.34537 -43.8959 
v -32.8829 -4.18851 -43.7572 
v -32.776 -3.5656 -43.7761 
v -32.684 -3.44642 -43.8347 
v -32.6323 -3.34537 -43.9423 
v -32.776 -4.18851 -43.7761 
v -32.674 -3.5656 -43.8132 
v -32.5935 -3.44642 -43.887 
v -32.5613 -3.34537 -44.0018 
v -32.5135 -3.44642 -43.9541 
v -32.5799 -3.5656 -43.8675 
v -32.4968 -3.5656 -43.9373 
v -32.4968 -4.18851 -43.9373 
v -32.5799 -4.18851 -43.8675 
v -32.5135 -4.3077 -43.9541 
v -32.674 -4.18851 -43.8132 
v -32.5935 -4.3077 -43.887 
v -32.5613 -4.40874 -44.0018 
v -32.6323 -4.40874 -43.9423 
v -32.684 -4.3077 -43.8347 
v -32.7125 -4.40874 -43.8959 
v -32.7822 -4.3077 -43.799 
v -32.7996 -4.40874 -43.8642 
v -32.885 -4.3077 -43.7809 
v -32.8909 -4.40874 -43.8481 
v -32.9895 -4.3077 -43.7809 
v -32.9836 -4.40874 -43.8481 
v -32.3356 -4.18851 -44.539 
v -32.3403 -4.3077 -44.3256 
v -32.3167 -4.18851 -44.4321 
v -32.3167 -4.18851 -44.3235 
v -32.3585 -4.3077 -44.2227 
v -32.3942 -4.3077 -44.1246 
v -32.3356 -4.18851 -44.2166 
v -32.4464 -4.3077 -44.0341 
v -32.5135 -4.3077 -43.9541 
v -32.3727 -4.18851 -44.1145 
v -32.427 -4.18851 -44.0205 
v -32.4968 -4.18851 -43.9373 
v -32.4968 -3.5656 -43.9373 
v -32.427 -3.5656 -44.0205 
v -32.5135 -3.44642 -43.9541 
v -32.3727 -3.5656 -44.1145 
v -32.4464 -3.44642 -44.0341 
v -32.3356 -3.5656 -44.2166 
v -32.3942 -3.44642 -44.1246 
v -32.3167 -3.5656 -44.3235 
v -32.3585 -3.44642 -44.2227 
v -32.3167 -3.5656 -44.4321 
v -32.4554 -3.34537 -44.1531 
v -32.3403 -3.44642 -44.3256 
v -32.4237 -3.34537 -44.2402 
v -32.3403 -3.44642 -44.43 
v -32.4076 -3.34537 -44.3314 
v -32.5082 -3.27786 -44.3403 
v -32.5213 -3.27786 -44.2663 
v -32.6284 -3.25415 -44.3506 
v -32.5082 -3.27786 -44.4153 
v -32.4076 -3.34537 -44.4241 
v -32.6284 -3.25415 -44.4049 
v -32.5213 -3.27786 -44.4892 
v -32.6378 -3.25415 -44.4584 
v -32.4237 -3.34537 -44.5154 
v -32.5469 -3.27786 -44.5598 
v -32.6564 -3.25415 -44.5094 
v -32.4554 -3.34537 -44.6025 
v -32.3585 -3.44642 -44.5329 
v -32.5845 -3.27786 -44.6248 
v -32.3356 -3.5656 -44.539 
v -32.3942 -3.44642 -44.631 
v -32.5017 -3.34537 -44.6827 
v -32.6835 -3.25415 -44.5564 
v -32.6327 -3.27786 -44.6823 
v -32.4464 -3.44642 -44.7215 
v -32.3727 -3.5656 -44.641 
v -32.3727 -4.18851 -44.641 
v -32.4464 -4.3077 -44.7215 
v -32.427 -4.18851 -44.7351 
v -32.427 -3.5656 -44.7351 
v -32.5613 -3.34537 -44.7537 
v -32.5135 -3.44642 -44.8015 
v -33.1589 -3.25415 -44.1576 
v -33.29 -3.27786 -44.1308 
v -33.2417 -3.27786 -44.0733 
v -33.1938 -3.25415 -44.1991 
v -33.3275 -3.27786 -44.1958 
v -33.3728 -3.34537 -44.0728 
v -33.2209 -3.25415 -44.2462 
v -33.4191 -3.34537 -44.1531 
v -33.3532 -3.27786 -44.2663 
v -33.4508 -3.34537 -44.2402 
v -33.2395 -3.25415 -44.2972 
v -33.4669 -3.34537 -44.3314 
v -33.3662 -3.27786 -44.3403 
v -33.2489 -3.25415 -44.3506 
v -33.2489 -3.25415 -44.4049 
v -33.3662 -3.27786 -44.4153 
v -33.4669 -3.34537 -44.4241 
v -33.5341 -3.44642 -44.3256 
v -33.516 -3.44642 -44.2227 
v -33.2395 -3.25415 -44.4584 
v -33.4803 -3.44642 -44.1246 
v -33.5578 -3.5656 -44.3235 
v -33.5389 -3.5656 -44.2166 
v -33.5018 -3.5656 -44.1145 
v -33.4281 -3.44642 -44.0341 
v -33.3132 -3.34537 -44.0018 
v -33.3609 -3.44642 -43.9541 
v -33.4475 -3.5656 -44.0205 
v -33.3777 -3.5656 -43.9373 
v -33.3777 -4.18851 -43.9373 
v -33.4475 -4.18851 -44.0205 
v -33.3609 -4.3077 -43.9541 
v -33.5018 -4.18851 -44.1145 
v -33.4281 -4.3077 -44.0341 
v -33.3132 -4.40874 -44.0018 
v -33.5389 -4.18851 -44.2166 
v -33.4803 -4.3077 -44.1246 
v -33.3728 -4.40874 -44.0728 
v -33.2417 -4.47626 -44.0733 
v -33.2422 -4.40874 -43.9423 
v -33.4191 -4.40874 -44.1531 
v -33.29 -4.47626 -44.1308 
v -33.1842 -4.47626 -44.025 
v -33.1619 -4.40874 -43.8959 
v -33.1575 -4.49996 -44.159 
v -33.1192 -4.47626 -43.9875 
v -33.0748 -4.40874 -43.8642 
v -33.1159 -4.49996 -44.1241 
v -33.0689 -4.49996 -44.0969 
v -33.0178 -4.49996 -44.0784 
v -33.0487 -4.47626 -43.9618 
v -32.9748 -4.47626 -43.9488 
v -32.9644 -4.49996 -44.0689 
v -32.9836 -4.40874 -43.8481 
v -32.9101 -4.49996 -44.0689 
v -32.8997 -4.47626 -43.9488 
v -32.8909 -4.40874 -43.8481 
v -32.7996 -4.40874 -43.8642 
v -32.8258 -4.47626 -43.9618 
v -32.8566 -4.49996 -44.0784 
v -32.7552 -4.47626 -43.9875 
v -32.4968 -4.18851 -44.8182 
v -32.6323 -3.34537 -44.8133 
v -32.4968 -3.5656 -44.8182 
v -32.5135 -4.3077 -44.8015 
v -32.5799 -4.18851 -44.888 
v -32.5799 -3.5656 -44.888 
v -32.5935 -3.44642 -44.8686 
v -32.5613 -4.40874 -44.7537 
v -32.5935 -4.3077 -44.8686 
v -32.674 -4.18851 -44.9423 
v -32.684 -4.3077 -44.9208 
v -32.674 -3.5656 -44.9423 
v -32.776 -4.18851 -44.9795 
v -32.7822 -4.3077 -44.9566 
v -32.684 -3.44642 -44.9208 
v -32.776 -3.5656 -44.9795 
v -32.8829 -4.18851 -44.9983 
v -32.7822 -3.44642 -44.9566 
v -32.7125 -3.34537 -44.8597 
v -32.8829 -3.5656 -44.9983 
v -32.7996 -3.34537 -44.8913 
v -32.885 -3.44642 -44.9747 
v -32.9915 -3.5656 -44.9983 
v -32.9915 -4.18851 -44.9983 
v -32.9895 -4.3077 -44.9747 
v -32.8258 -3.27786 -44.7938 
v -32.885 -4.3077 -44.9747 
v -32.7996 -4.40874 -44.8913 
v -32.9836 -4.40874 -44.9074 
v -32.8909 -4.40874 -44.9074 
v -33.0748 -4.40874 -44.8913 
v -33.0923 -4.3077 -44.9566 
v -33.0985 -4.18851 -44.9795 
v -33.1905 -4.3077 -44.9208 
v -33.0985 -3.5656 -44.9795 
v -33.2005 -4.18851 -44.9423 
v -33.2809 -4.3077 -44.8686 
v -33.2945 -4.18851 -44.888 
v -33.2005 -3.5656 -44.9423 
v -33.0923 -3.44642 -44.9566 
v -33.1905 -3.44642 -44.9208 
v -32.9895 -3.44642 -44.9747 
v -32.8909 -3.34537 -44.9074 
v -33.0748 -3.34537 -44.8913 
v -32.8997 -3.27786 -44.8068 
v -32.9836 -3.34537 -44.9074 
v -32.9748 -3.27786 -44.8068 
v -33.0487 -3.27786 -44.7938 
v -32.9115 -3.25415 -44.6881 
v -32.9658 -3.25415 -44.6881 
v -32.858 -3.25415 -44.6786 
v -33.0193 -3.25415 -44.6786 
v -32.807 -3.25415 -44.6601 
v -32.7552 -3.27786 -44.7681 
v -32.76 -3.25415 -44.6329 
v -32.6902 -3.27786 -44.7305 
v -32.7184 -3.25415 -44.598 
v -33.1192 -3.27786 -44.7681 
v -33.0703 -3.25415 -44.6601 
v -33.1619 -3.34537 -44.8597 
v -33.1842 -3.27786 -44.7305 
v -33.2422 -3.34537 -44.8133 
v -33.2809 -3.44642 -44.8686 
v -33.1173 -3.25415 -44.6329 
v -33.2417 -3.27786 -44.6823 
v -33.3132 -3.34537 -44.7537 
v -33.2945 -3.5656 -44.888 
v -33.1589 -3.25415 -44.598 
v -33.29 -3.27786 -44.6248 
v -33.1938 -3.25415 -44.5564 
v -33.3728 -3.34537 -44.6827 
v -33.3275 -3.27786 -44.5598 
v -33.2209 -3.25415 -44.5094 
v -33.4191 -3.34537 -44.6025 
v -33.3532 -3.27786 -44.4892 
v -33.4508 -3.34537 -44.5154 
v -33.5341 -3.44642 -44.43 
v -33.516 -3.44642 -44.5329 
v -33.5578 -3.5656 -44.4321 
v -33.4803 -3.44642 -44.631 
v -33.5389 -3.5656 -44.539 
v -33.4281 -3.44642 -44.7215 
v -33.5018 -3.5656 -44.641 
v -33.3609 -3.44642 -44.8015 
v -33.4475 -3.5656 -44.7351 
v -33.3777 -3.5656 -44.8182 
v -33.3777 -4.18851 -44.8182 
v -33.4475 -4.18851 -44.7351 
v -33.5018 -4.18851 -44.641 
v -33.3609 -4.3077 -44.8015 
v -33.4281 -4.3077 -44.7215 
v -33.5389 -4.18851 -44.539 
v -33.3132 -4.40874 -44.7537 
v -33.4803 -4.3077 -44.631 
v -33.3728 -4.40874 -44.6827 

vn 0.299213 -0.700787 0.645669 
vn 0.228346 -0.92126 0.322835 
vn 0.409449 -0.700787 0.582677 
vn 0.0472441 -0.992126 0.0944882 
vn 0.0551181 -0.992126 0.0866142 
vn 0 -1 0 
vn 0.275591 -0.92126 0.275591 
vn 0.503937 -0.700787 0.503937 
vn 0.0708661 -0.992126 0.0708661 
vn 0.582677 -0.700787 0.409449 
vn 0.322835 -0.92126 0.228346 
vn 0.0866142 -0.992126 0.0629921 
vn 0.645669 -0.700787 0.299213 
vn 0.354331 -0.92126 0.165354 
vn 0.0944882 -0.992126 0.0472441 
vn 0.685039 -0.700787 0.181102 
vn 0.377953 -0.92126 0.102362 
vn 0.102362 -0.992126 0.023622 
vn 0.393701 -0.92126 0.0314961 
vn 0.102362 -0.992126 0.00787402 
vn 0.708661 -0.700787 0.0629921 
vn 0.393701 -0.92126 -0.0314961 
vn 0.102362 -0.992126 -0.00787402 
vn 0.708661 -0.700787 -0.0629921 
vn 0.377953 -0.92126 -0.102362 
vn 0.102362 -0.992126 -0.023622 
vn 0.685039 -0.700787 -0.181102 
vn 0.354331 -0.92126 -0.165354 
vn 0.0944882 -0.992126 -0.0472441 
vn 0.645669 -0.700787 -0.299213 
vn 0.322835 -0.92126 -0.228346 
vn 0.0866142 -0.992126 -0.0629921 
vn 0.275591 -0.92126 -0.275591 
vn 0.582677 -0.700787 -0.409449 
vn 0.897638 -0.377953 -0.23622 
vn 0.84252 -0.377953 -0.393701 
vn 0.92126 -0.377953 -0.0787402 
vn 0.582677 0.700787 0.409449 
vn 0.354331 0.92126 0.165354 
vn 0.322835 0.92126 0.228346 
vn 0.503937 0.700787 0.503937 
vn 0.0944882 0.992126 0.0472441 
vn 0.0944882 0.992126 0.023622 
vn 0.275591 0.92126 0.275591 
vn 0 1 0 
vn 0.409449 0.700787 0.582677 
vn 0.0866142 0.992126 0.0551181 
vn 0.228346 0.92126 0.322835 
vn 0.0708661 0.992126 0.0708661 
vn 0.299213 0.700787 0.645669 
vn 0.0629921 0.992126 0.0866142 
vn 0.165354 0.92126 0.354331 
vn 0.181102 0.700787 0.685039 
vn 0.0472441 0.992126 0.0944882 
vn 0.102362 0.92126 0.377953 
vn 0.0629921 0.700787 0.708661 
vn 0.023622 0.992126 0.102362 
vn 0.0314961 0.92126 0.393701 
vn -0.0629921 0.700787 0.708661 
vn 0.00787402 0.992126 0.102362 
vn -0.0314961 0.92126 0.393701 
vn -0.181102 0.700787 0.685039 
vn -0.00787402 0.992126 0.102362 
vn -0.102362 0.92126 0.377953 
vn -0.299213 0.700787 0.645669 
vn -0.023622 0.992126 0.102362 
vn -0.165354 0.92126 0.354331 
vn -0.409449 0.700787 0.582677 
vn -0.228346 0.92126 0.322835 
vn -0.0472441 0.992126 0.0944882 
vn -0.0629921 0.992126 0.0866142 
vn -0.897638 -0.377953 -0.23622 
vn -0.645669 -0.700787 -0.299213 
vn -0.685039 -0.700787 -0.181102 
vn -0.992126 -0.0944882 -0.0866142 
vn -0.92126 -0.377953 -0.0787402 
vn -0.92126 -0.377953 0.0787402 
vn -0.992126 -0.0944882 0.0866142 
vn -0.897638 -0.377953 0.23622 
vn -0.685039 -0.700787 0.181102 
vn -0.354331 -0.92126 -0.165354 
vn -0.322835 -0.92126 -0.228346 
vn -0.708661 -0.700787 0.0629921 
vn -0.708661 -0.700787 -0.0629921 
vn -0.377953 -0.92126 -0.102362 
vn -0.0944882 -0.992126 -0.0472441 
vn -0.102362 -0.992126 -0.023622 
vn -0.393701 -0.92126 -0.0314961 
vn -0.102362 -0.992126 -0.00787402 
vn -0.0866142 -0.992126 -0.0629921 
vn -0.275591 -0.92126 -0.275591 
vn -0.393701 -0.92126 0.0314961 
vn -0.102362 -0.992126 0.00787402 
vn -0.0708661 -0.992126 -0.0708661 
vn -0.377953 -0.92126 0.102362 
vn -0.354331 -0.92126 0.165354 
vn -0.102362 -0.992126 0.023622 
vn -0.0944882 -0.992126 0.0472441 
vn -0.0866142 -0.992126 0.0629921 
vn -0.228346 -0.92126 -0.322835 
vn -0.409449 -0.700787 -0.582677 
vn -0.299213 -0.700787 -0.645669 
vn -0.0629921 -0.992126 -0.0866142 
vn -0.165354 -0.92126 -0.354331 
vn -0.102362 -0.92126 -0.377953 
vn -0.0472441 -0.992126 -0.0944882 
vn -0.023622 -0.992126 -0.102362 
vn -0.0314961 -0.92126 -0.393701 
vn -0.00787402 -0.992126 -0.102362 
vn 0.0314961 -0.92126 -0.393701 
vn 0.00787402 -0.992126 -0.102362 
vn 0.023622 -0.992126 -0.102362 
vn 0.102362 -0.92126 -0.377953 
vn 0.0472441 -0.992126 -0.0944882 
vn 0.165354 -0.92126 -0.354331 
vn 0.299213 -0.700787 -0.645669 
vn 0.0629921 -0.992126 -0.0866142 
vn 0.228346 -0.92126 -0.322835 
vn 0.409449 -0.700787 -0.582677 
vn 0.0708661 -0.992126 -0.0708661 
vn -0.527559 -0.377953 0.755906 
vn -0.503937 -0.700787 0.503937 
vn -0.409449 -0.700787 0.582677 
vn -0.653543 -0.377953 0.653543 
vn -0.393701 -0.377953 0.84252 
vn -0.299213 -0.700787 0.645669 
vn -0.566929 -0.0944882 0.818898 
vn -0.700787 -0.0944882 0.700787 
vn -0.700787 0.0944882 0.700787 
vn -0.417323 -0.0944882 0.905512 
vn -0.566929 0.0944882 0.818898 
vn -0.653543 0.377953 0.653543 
vn -0.23622 -0.377953 0.897638 
vn -0.181102 -0.700787 0.685039 
vn -0.259843 -0.0944882 0.96063 
vn -0.417323 0.0944882 0.905512 
vn -0.527559 0.377953 0.755906 
vn -0.503937 0.700787 0.503937 
vn -0.409449 0.700787 0.582677 
vn -0.393701 0.377953 0.84252 
vn -0.299213 0.700787 0.645669 
vn -0.259843 0.0944882 0.96063 
vn -0.23622 0.377953 0.897638 
vn -0.181102 0.700787 0.685039 
vn -0.0866142 -0.0944882 0.992126 
vn -0.0866142 0.0944882 0.992126 
vn -0.0787402 0.377953 0.92126 
vn -0.0629921 0.700787 0.708661 
vn 0.0866142 0.0944882 0.992126 
vn 0.0787402 0.377953 0.92126 
vn 0.0629921 0.700787 0.708661 
vn 0.181102 0.700787 0.685039 
vn 0.23622 0.377953 0.897638 
vn 0.299213 0.700787 0.645669 
vn 0.0866142 -0.0944882 0.992126 
vn 0.259843 0.0944882 0.96063 
vn 0.393701 0.377953 0.84252 
vn 0.409449 0.700787 0.582677 
vn 0.259843 -0.0944882 0.96063 
vn 0.417323 0.0944882 0.905512 
vn 0.527559 0.377953 0.755906 
vn 0.503937 0.700787 0.503937 
vn 0.653543 0.377953 0.653543 
vn 0.574803 0.0944882 0.818898 
vn 0.700787 0.0944882 0.700787 
vn 0.700787 -0.0944882 0.700787 
vn 0.574803 -0.0944882 0.818898 
vn 0.653543 -0.377953 0.653543 
vn 0.417323 -0.0944882 0.905512 
vn 0.527559 -0.377953 0.755906 
vn 0.503937 -0.700787 0.503937 
vn 0.409449 -0.700787 0.582677 
vn 0.393701 -0.377953 0.84252 
vn 0.299213 -0.700787 0.645669 
vn 0.23622 -0.377953 0.897638 
vn 0.181102 -0.700787 0.685039 
vn 0.0787402 -0.377953 0.92126 
vn 0.0629921 -0.700787 0.708661 
vn -0.0787402 -0.377953 0.92126 
vn -0.0629921 -0.700787 0.708661 
vn 0.96063 -0.0944882 -0.259843 
vn 0.92126 -0.377953 0.0787402 
vn 0.992126 -0.0944882 -0.0866142 
vn 0.992126 -0.0944882 0.0866142 
vn 0.897638 -0.377953 0.23622 
vn 0.84252 -0.377953 0.393701 
vn 0.96063 -0.0944882 0.259843 
vn 0.755906 -0.377953 0.527559 
vn 0.653543 -0.377953 0.653543 
vn 0.905512 -0.0944882 0.417323 
vn 0.818898 -0.0944882 0.574803 
vn 0.700787 -0.0944882 0.700787 
vn 0.700787 0.0944882 0.700787 
vn 0.818898 0.0944882 0.574803 
vn 0.653543 0.377953 0.653543 
vn 0.905512 0.0944882 0.417323 
vn 0.755906 0.377953 0.527559 
vn 0.96063 0.0944882 0.259843 
vn 0.84252 0.377953 0.393701 
vn 0.992126 0.0944882 0.0866142 
vn 0.897638 0.377953 0.23622 
vn 0.992126 0.0944882 -0.0866142 
vn 0.645669 0.700787 0.299213 
vn 0.92126 0.377953 0.0787402 
vn 0.685039 0.700787 0.181102 
vn 0.92126 0.377953 -0.0787402 
vn 0.708661 0.700787 0.0629921 
vn 0.385827 0.92126 0.0314961 
vn 0.377953 0.92126 0.102362 
vn 0.102362 0.992126 0.00787402 
vn 0.385827 0.92126 -0.0314961 
vn 0.708661 0.700787 -0.0629921 
vn 0.102362 0.992126 -0.00787402 
vn 0.377953 0.92126 -0.102362 
vn 0.0944882 0.992126 -0.023622 
vn 0.685039 0.700787 -0.181102 
vn 0.354331 0.92126 -0.165354 
vn 0.0944882 0.992126 -0.0393701 
vn 0.645669 0.700787 -0.299213 
vn 0.897638 0.377953 -0.23622 
vn 0.322835 0.92126 -0.220472 
vn 0.96063 0.0944882 -0.259843 
vn 0.84252 0.377953 -0.393701 
vn 0.582677 0.700787 -0.409449 
vn 0.0866142 0.992126 -0.0551181 
vn 0.275591 0.92126 -0.275591 
vn 0.755906 0.377953 -0.527559 
vn 0.905512 0.0944882 -0.417323 
vn 0.905512 -0.0944882 -0.417323 
vn 0.755906 -0.377953 -0.527559 
vn 0.818898 -0.0944882 -0.566929 
vn 0.818898 0.0944882 -0.566929 
vn 0.503937 0.700787 -0.503937 
vn 0.653543 0.377953 -0.653543 
vn -0.0708661 0.992126 0.0708661 
vn -0.322835 0.92126 0.228346 
vn -0.275591 0.92126 0.275591 
vn -0.0866142 0.992126 0.0629921 
vn -0.354331 0.92126 0.165354 
vn -0.582677 0.700787 0.409449 
vn -0.0944882 0.992126 0.0472441 
vn -0.645669 0.700787 0.299213 
vn -0.377953 0.92126 0.102362 
vn -0.685039 0.700787 0.181102 
vn -0.102362 0.992126 0.023622 
vn -0.708661 0.700787 0.0629921 
vn -0.393701 0.92126 0.0314961 
vn -0.102362 0.992126 0.00787402 
vn -0.102362 0.992126 -0.00787402 
vn -0.393701 0.92126 -0.0314961 
vn -0.708661 0.700787 -0.0629921 
vn -0.92126 0.377953 0.0787402 
vn -0.897638 0.377953 0.23622 
vn -0.102362 0.992126 -0.023622 
vn -0.84252 0.377953 0.393701 
vn -0.992126 0.0944882 0.0866142 
vn -0.96063 0.0944882 0.259843 
vn -0.905512 0.0944882 0.417323 
vn -0.755906 0.377953 0.527559 
vn -0.503937 0.700787 0.503937 
vn -0.653543 0.377953 0.653543 
vn -0.818898 0.0944882 0.574803 
vn -0.700787 0.0944882 0.700787 
vn -0.700787 -0.0944882 0.700787 
vn -0.818898 -0.0944882 0.574803 
vn -0.653543 -0.377953 0.653543 
vn -0.905512 -0.0944882 0.417323 
vn -0.755906 -0.377953 0.527559 
vn -0.503937 -0.700787 0.503937 
vn -0.96063 -0.0944882 0.259843 
vn -0.84252 -0.377953 0.393701 
vn -0.582677 -0.700787 0.409449 
vn -0.275591 -0.92126 0.275591 
vn -0.409449 -0.700787 0.582677 
vn -0.645669 -0.700787 0.299213 
vn -0.322835 -0.92126 0.228346 
vn -0.220472 -0.92126 0.322835 
vn -0.299213 -0.700787 0.645669 
vn -0.0708661 -0.992126 0.0708661 
vn -0.165354 -0.92126 0.354331 
vn -0.181102 -0.700787 0.685039 
vn -0.0551181 -0.992126 0.0866142 
vn -0.0393701 -0.992126 0.0944882 
vn -0.023622 -0.992126 0.0944882 
vn -0.102362 -0.92126 0.377953 
vn -0.0314961 -0.92126 0.385827 
vn -0.00787402 -0.992126 0.102362 
vn -0.0629921 -0.700787 0.708661 
vn 0.00787402 -0.992126 0.102362 
vn 0.0314961 -0.92126 0.385827 
vn 0.0629921 -0.700787 0.708661 
vn 0.181102 -0.700787 0.685039 
vn 0.102362 -0.92126 0.377953 
vn 0.023622 -0.992126 0.0944882 
vn 0.165354 -0.92126 0.354331 
vn 0.700787 -0.0944882 -0.700787 
vn 0.409449 0.700787 -0.582677 
vn 0.700787 0.0944882 -0.700787 
vn 0.653543 -0.377953 -0.653543 
vn 0.574803 -0.0944882 -0.818898 
vn 0.574803 0.0944882 -0.818898 
vn 0.527559 0.377953 -0.755906 
vn 0.503937 -0.700787 -0.503937 
vn 0.527559 -0.377953 -0.755906 
vn 0.417323 -0.0944882 -0.905512 
vn 0.393701 -0.377953 -0.84252 
vn 0.417323 0.0944882 -0.905512 
vn 0.259843 -0.0944882 -0.96063 
vn 0.23622 -0.377953 -0.897638 
vn 0.393701 0.377953 -0.84252 
vn 0.259843 0.0944882 -0.96063 
vn 0.0866142 -0.0944882 -0.992126 
vn 0.23622 0.377953 -0.897638 
vn 0.299213 0.700787 -0.645669 
vn 0.0866142 0.0944882 -0.992126 
vn 0.181102 0.700787 -0.685039 
vn 0.0787402 0.377953 -0.92126 
vn -0.0866142 0.0944882 -0.992126 
vn -0.0866142 -0.0944882 -0.992126 
vn -0.0787402 -0.377953 -0.92126 
vn 0.102362 0.92126 -0.377953 
vn 0.0787402 -0.377953 -0.92126 
vn 0.181102 -0.700787 -0.685039 
vn -0.0629921 -0.700787 -0.708661 
vn 0.0629921 -0.700787 -0.708661 
vn -0.181102 -0.700787 -0.685039 
vn -0.23622 -0.377953 -0.897638 
vn -0.259843 -0.0944882 -0.96063 
vn -0.393701 -0.377953 -0.84252 
vn -0.259843 0.0944882 -0.96063 
vn -0.417323 -0.0944882 -0.905512 
vn -0.527559 -0.377953 -0.755906 
vn -0.574803 -0.0944882 -0.818898 
vn -0.417323 0.0944882 -0.905512 
vn -0.23622 0.377953 -0.897638 
vn -0.393701 0.377953 -0.84252 
vn -0.0787402 0.377953 -0.92126 
vn 0.0629921 0.700787 -0.708661 
vn -0.181102 0.700787 -0.685039 
vn 0.0314961 0.92126 -0.393701 
vn -0.0629921 0.700787 -0.708661 
vn -0.0314961 0.92126 -0.393701 
vn -0.102362 0.92126 -0.377953 
vn 0.00787402 0.992126 -0.102362 
vn -0.00787402 0.992126 -0.102362 
vn 0.023622 0.992126 -0.102362 
vn -0.023622 0.992126 -0.102362 
vn 0.0472441 0.992126 -0.0944882 
vn 0.165354 0.92126 -0.354331 
vn 0.0629921 0.992126 -0.0866142 
vn 0.228346 0.92126 -0.322835 
vn 0.0708661 0.992126 -0.0708661 
vn -0.165354 0.92126 -0.354331 
vn -0.0472441 0.992126 -0.0944882 
vn -0.299213 0.700787 -0.645669 
vn -0.228346 0.92126 -0.322835 
vn -0.409449 0.700787 -0.582677 
vn -0.527559 0.377953 -0.755906 
vn -0.0629921 0.992126 -0.0866142 
vn -0.275591 0.92126 -0.275591 
vn -0.503937 0.700787 -0.503937 
vn -0.574803 0.0944882 -0.818898 
vn -0.0708661 0.992126 -0.0708661 
vn -0.322835 0.92126 -0.228346 
vn -0.0866142 0.992126 -0.0629921 
vn -0.582677 0.700787 -0.409449 
vn -0.354331 0.92126 -0.165354 
vn -0.0944882 0.992126 -0.0472441 
vn -0.645669 0.700787 -0.299213 
vn -0.377953 0.92126 -0.102362 
vn -0.685039 0.700787 -0.181102 
vn -0.92126 0.377953 -0.0787402 
vn -0.897638 0.377953 -0.23622 
vn -0.992126 0.0944882 -0.0866142 
vn -0.84252 0.377953 -0.393701 
vn -0.96063 0.0944882 -0.259843 
vn -0.755906 0.377953 -0.527559 
vn -0.905512 0.0944882 -0.417323 
vn -0.653543 0.377953 -0.653543 
vn -0.818898 0.0944882 -0.574803 
vn -0.700787 0.0944882 -0.700787 
vn -0.700787 -0.0944882 -0.700787 
vn -0.818898 -0.0944882 -0.574803 
vn -0.905512 -0.0944882 -0.417323 
vn -0.653543 -0.377953 -0.653543 
vn -0.755906 -0.377953 -0.527559 
vn -0.96063 -0.0944882 -0.259843 
vn -0.503937 -0.700787 -0.503937 
vn -0.84252 -0.377953 -0.393701 
vn -0.582677 -0.700787 -0.409449 

vt 0.0579788 0.9375 
vt 0.0579788 0.9375 
vt 0.0579788 0.9375 
vt 0.0579788 0.9375 
vt 0.0579788 0.9375 
vt 0.0579788 0.9375 
vt 0.0579788 0.9375 
vt 0.0579788 0.9375 
vt 0.0579788 0.9375 
vt 0.0579788 0.9375 
vt 0.0579788 0.9375 
vt 0.0579788 0.9375 
vt 0.0579788 0.9375 
vt 0.0579788 0.9375 
vt 0.0579788 0.9375 
vt 0.0579788 0.9375 
vt 0.0579788 0.9375 
vt 0.0579788 0.9375 
vt 0.0579788 0.9375 
vt 0.0579788 0.9375 
vt 0.0579788 0.9375 
vt 0.0579788 0.9375 
vt 0.0579788 0.9375 
vt 0.0579788 0.9375 
vt 0.0579788 0.9375 
vt 0.0579788 0.9375 
vt 0.0579788 0.9375 
vt 0.0579788 0.9375 
vt 0.0579788 0.9375 
vt 0.0579788 0.9375 
vt 0.0579788 0.9375 
vt 0.0579788 0.9375 
vt 0.0579788 0.9375 
vt 0.0579788 0.9375 
vt 0.0579788 0.9375 
vt 0.0579788 0.9375 
vt 0.0579788 0.9375 
vt 0.0579788 0.9375 
vt 0.0579788 0.9375 
vt 0.0579788 0.9375 
vt 0.0579788 0.9375 
vt 0.0579788 0.9375 
vt 0.0579788 0.9375 
vt 0.0579788 0.9375 
vt 0.0579788 0.9375 
vt 0.0579788 0.9375 
vt 0.0579788 0.9375 
vt 0.0579788 0.9375 
vt 0.0579788 0.9375 
vt 0.0579788 0.9375 
vt 0.0579788 0.9375 
vt 0.0579788 0.9375 
vt 0.0579788 0.9375 
vt 0.0579788 0.9375 
vt 0.0579788 0.9375 
vt 0.0579788 0.9375 
vt 0.0579788 0.9375 
vt 0.0579788 0.9375 
vt 0.0579788 0.9375 
vt 0.0579788 0.9375 
vt 0.0579788 0.9375 
vt 0.0579788 0.9375 
vt 0.0579788 0.9375 
vt 0.0579788 0.9375 
vt 0.0579788 0.9375 
vt 0.0579788 0.9375 
vt 0.0579788 0.9375 
vt 0.0579788 0.9375 
vt 0.0579788 0.9375 
vt 0.0579788 0.9375 
vt 0.0579788 0.9375 
vt 0.0579788 0.9375 
vt 0.0579788 0.9375 
vt 0.0579788 0.9375 
vt 0.0579788 0.9375 
vt 0.0579788 0.9375 
vt 0.0579788 0.9375 
vt 0.0579788 0.9375 
vt 0.0579788 0.9375 
vt 0.0579788 0.9375 
vt 0.0579788 0.9375 
vt 0.0579788 0.9375 
vt 0.0579788 0.9375 
vt 0.0579788 0.9375 
vt 0.0579788 0.9375 
vt 0.0579788 0.9375 
vt 0.0579788 0.9375 
vt 0.0579788 0.9375 
vt 0.0579788 0.9375 
vt 0.0579788 0.9375 
vt 0.0579788 0.9375 
vt 0.0579788 0.9375 
vt 0.0579788 0.9375 
vt 0.0579788 0.9375 
vt 0.0579788 0.9375 
vt 0.0579788 0.9375 
vt 0.0579788 0.9375 
vt 0.0579788 0.9375 
vt 0.0579788 0.9375 
vt 0.0579788 0.9375 
vt 0.0579788 0.9375 
vt 0.0579788 0.9375 
vt 0.0579788 0.9375 
vt 0.0579788 0.9375 
vt 0.0579788 0.9375 
vt 0.0579788 0.9375 
vt 0.0579788 0.9375 
vt 0.0579788 0.9375 
vt 0.0579788 0.9375 
vt 0.0579788 0.9375 
vt 0.0579788 0.9375 
vt 0.0579788 0.9375 
vt 0.0579788 0.9375 
vt 0.0579788 0.9375 
vt 0.0579788 0.9375 
vt 0.0579788 0.9375 
vt 0.0579788 0.9375 
vt 0.0579788 0.9375 
vt 0.0579788 0.9375 
vt 0.0579788 0.9375 
vt 0.162459 0.115219 
vt 0.130767 0.024936 
vt 0.200488 0.024936 
vt 0.083884 0.115219 
vt 0.251289 0.115219 
vt 0.279309 0.024936 
vt 0.149104 0.221714 
vt 0.067421 0.221714 
vt 0.067421 0.778286 
vt 0.241449 0.221714 
vt 0.149104 0.778286 
vt 0.083884 0.884781 
vt 0.347675 0.115219 
vt 0.364835 0.024936 
vt 0.341649 0.221714 
vt 0.241449 0.778286 
vt 0.162459 0.884781 
vt 0.130767 0.975063 
vt 0.200488 0.975063 
vt 0.251289 0.884781 
vt 0.279309 0.975063 
vt 0.341649 0.778286 
vt 0.347675 0.884781 
vt 0.364835 0.975063 
vt 0.446659 0.221714 
vt 0.446659 0.778286 
vt 0.448688 0.884781 
vt 0.454467 0.975063 
vt 0.553289 0.778286 
vt 0.55126 0.884781 
vt 0.545482 0.975063 
vt 0.635114 0.975063 
vt 0.652274 0.884781 
vt 0.720639 0.975063 
vt 0.553289 0.221714 
vt 0.6583 0.778286 
vt 0.74866 0.884781 
vt 0.79946 0.975063 
vt 0.6583 0.221714 
vt 0.758499 0.778286 
vt 0.83749 0.884781 
vt 0.869182 0.975063 
vt 0.916064 0.884781 
vt 0.850844 0.778286 
vt 0.932527 0.778286 
vt 0.932527 0.221714 
vt 0.850844 0.221714 
vt 0.916064 0.115219 
vt 0.758499 0.221714 
vt 0.83749 0.115219 
vt 0.869182 0.024936 
vt 0.79946 0.024936 
vt 0.74866 0.115219 
vt 0.720639 0.024936 
vt 0.652274 0.115219 
vt 0.635114 0.024936 
vt 0.55126 0.115219 
vt 0.545482 0.024936 
vt 0.448688 0.115219 
vt 0.454467 0.024936 
vt 0.0579788 0.9375 
vt 0.0579788 0.9375 
vt 0.0579788 0.9375 
vt 0.0579788 0.9375 
vt 0.0579788 0.9375 
vt 0.0579788 0.9375 
vt 0.0579788 0.9375 
vt 0.0579788 0.9375 
vt 0.0579788 0.9375 
vt 0.0579788 0.9375 
vt 0.0579788 0.9375 
vt 0.0579788 0.9375 
vt 0.0579788 0.9375 
vt 0.0579788 0.9375 
vt 0.0579788 0.9375 
vt 0.0579788 0.9375 
vt 0.0579788 0.9375 
vt 0.0579788 0.9375 
vt 0.0579788 0.9375 
vt 0.0579788 0.9375 
vt 0.0579788 0.9375 
vt 0.0579788 0.9375 
vt 0.0579788 0.9375 
vt 0.0579788 0.9375 
vt 0.0579788 0.9375 
vt 0.0579788 0.9375 
vt 0.0579788 0.9375 
vt 0.0579788 0.9375 
vt 0.0579788 0.9375 
vt 0.0579788 0.9375 
vt 0.0579788 0.9375 
vt 0.0579788 0.9375 
vt 0.0579788 0.9375 
vt 0.0579788 0.9375 
vt 0.0579788 0.9375 
vt 0.0579788 0.9375 
vt 0.0579788 0.9375 
vt 0.0579788 0.9375 
vt 0.0579788 0.9375 
vt 0.0579788 0.9375 
vt 0.0579788 0.9375 
vt 0.0579788 0.9375 
vt 0.0579788 0.9375 
vt 0.0579788 0.9375 
vt 0.0579788 0.9375 
vt 0.0579788 0.9375 
vt 0.0579788 0.9375 
vt 0.0579788 0.9375 
vt 0.0579788 0.9375 
vt 0.0579788 0.9375 
vt 0.0579788 0.9375 
vt 0.0579788 0.9375 
vt 0.0579788 0.9375 
vt 0.0579788 0.9375 
vt 0.0579788 0.9375 
vt 0.0579788 0.9375 
vt 0.0579788 0.9375 
vt 0.0579788 0.9375 
vt 0.0579788 0.9375 
vt 0.0579788 0.9375 
vt 0.0579788 0.9375 
vt 0.0579788 0.9375 
vt 0.0579788 0.9375 
vt 0.0579788 0.9375 
vt 0.0579788 0.9375 
vt 0.0579788 0.9375 
vt 0.0579788 0.9375 
vt 0.0579788 0.9375 
vt 0.0579788 0.9375 
vt 0.0579788 0.9375 
vt 0.0579788 0.9375 
vt 0.0579788 0.9375 
vt 0.0579788 0.9375 
vt 0.0579788 0.9375 
vt 0.0579788 0.9375 
vt 0.0579788 0.9375 
vt 0.0579788 0.9375 
vt 0.0579788 0.9375 
vt 0.0579788 0.9375 
vt 0.0579788 0.9375 
vt 0.0579788 0.9375 
vt 0.0579788 0.9375 
vt 0.0579788 0.9375 
vt 0.0579788 0.9375 
vt 0.0579788 0.9375 
vt 0.0579788 0.9375 
vt 0.0579788 0.9375 
vt 0.0579788 0.9375 
vt 0.0579788 0.9375 
vt 0.0579788 0.9375 
vt 0.0579788 0.9375 
vt 0.0579788 0.9375 
vt 0.0579788 0.9375 
vt 0.0579788 0.9375 
vt 0.0579788 0.9375 
vt 0.0579788 0.9375 
vt 0.0579788 0.9375 
vt 0.0579788 0.9375 
vt 0.0579788 0.9375 
vt 0.0579788 0.9375 
vt 0.0579788 0.9375 
vt 0.0579788 0.9375 
vt 0.0579788 0.9375 
vt 0.0579788 0.9375 
vt 0.0579788 0.9375 
vt 0.0579788 0.9375 
vt 0.0579788 0.9375 
vt 0.0579788 0.9375 
vt 0.0579788 0.9375 
vt 0.0579788 0.9375 
vt 0.0579788 0.9375 
vt 0.0579788 0.9375 
vt 0.0579788 0.9375 
vt 0.0579788 0.9375 
vt 0.0579788 0.9375 
vt 0.0579788 0.9375 
vt 0.0579788 0.9375 
vt 0.0579788 0.9375 
vt 0.0579788 0.9375 
vt 0.0579788 0.9375 
vt 0.0579788 0.9375 
vt 0.0579788 0.9375 
vt 0.0579788 0.9375 
vt 0.0579788 0.9375 
vt 0.0579788 0.9375 
vt 0.0579788 0.9375 
vt 0.0579788 0.9375 
vt 0.0579788 0.9375 
vt 0.0579788 0.9375 
vt 0.0579788 0.9375 
vt 0.0579788 0.9375 
vt 0.0579788 0.9375 
vt 0.0579788 0.9375 
vt 0.0579788 0.9375 
vt 0.0579788 0.9375 
vt 0.0579788 0.9375 
vt 0.0579788 0.9375 
vt 0.0579788 0.9375 
vt 0.0579788 0.9375 
vt 0.0579788 0.9375 
vt 0.0579788 0.9375 
vt 0.0579788 0.9375 
vt 0.0579788 0.9375 
vt 0.0579788 0.9375 
vt 0.0579788 0.9375 
vt 0.0579788 0.9375 
vt 0.0579788 0.9375 
vt 0.0579788 0.9375 
vt 0.0579788 0.9375 
vt 0.0579788 0.9375 
vt 0.0579788 0.9375 
vt 0.0579788 0.9375 
vt 0.0579788 0.9375 
vt 0.0579788 0.9375 
vt 0.0579788 0.9375 
vt 0.0579788 0.9375 
vt 0.0579788 0.9375 
vt 0.0579788 0.9375 
vt 0.0579788 0.9375 
vt 0.0579788 0.9375 
vt 0.0579788 0.9375 
vt 0.0579788 0.9375 
vt 0.0579788 0.9375 
vt 0.0579788 0.9375 
vt 0.0579788 0.9375 
vt 0.0579788 0.9375 
vt 0.0579788 0.9375 
vt 0.0579788 0.9375 
vt 0.0579788 0.9375 
vt 0.0579788 0.9375 
vt 0.0579788 0.9375 
vt 0.0579788 0.9375 
vt 0.0579788 0.9375 
vt 0.0579788 0.9375 
vt 0.0579788 0.9375 
vt 0.0579788 0.9375 
vt 0.0579788 0.9375 
vt 0.0579788 0.9375 
vt 0.0579788 0.9375 
vt 0.0579788 0.9375 
vt 0.0579788 0.9375 
vt 0.0579788 0.9375 
vt 0.0579788 0.9375 
vt 0.0579788 0.9375 
vt 0.0579788 0.9375 
vt 0.0579788 0.9375 
vt 0.0579788 0.9375 
vt 0.0579788 0.9375 
vt 0.0579788 0.9375 
vt 0.0579788 0.9375 
vt 0.0579788 0.9375 
vt 0.0579788 0.9375 
vt 0.0579788 0.9375 
vt 0.0579788 0.9375 
vt 0.0579788 0.9375 
vt 0.0579788 0.9375 
vt 0.0579788 0.9375 
vt 0.0579788 0.9375 
vt 0.0579788 0.9375 
vt 0.0579788 0.9375 
vt 0.0579788 0.9375 
vt 0.0579788 0.9375 
vt 0.0579788 0.9375 
vt 0.0579788 0.9375 
vt 0.0579788 0.9375 
vt 0.0579788 0.9375 
vt 0.0579788 0.9375 
vt 0.0579788 0.9375 
vt 0.0579788 0.9375 
vt 0.0579788 0.9375 

usemtl Handle1Mtl

f 1/1/1 2/2/2 3/3/3 
f 2/2/2 4/4/4 5/5/5 
f 5/5/5 4/4/4 6/6/6 
f 7/7/7 3/3/3 2/2/2 
f 5/5/5 7/7/7 2/2/2 
f 3/3/3 7/7/7 8/8/8 
f 7/7/7 5/5/5 9/9/9 
f 9/9/9 5/5/5 6/6/6 
f 7/7/7 10/10/10 8/8/8 
f 9/9/9 11/11/11 7/7/7 
f 10/10/10 7/7/7 11/11/11 
f 11/11/11 9/9/9 12/12/12 
f 12/12/12 9/9/9 6/6/6 
f 11/11/11 13/13/13 10/10/10 
f 12/12/12 14/14/14 11/11/11 
f 13/13/13 11/11/11 14/14/14 
f 14/14/14 12/12/12 15/15/15 
f 15/15/15 12/12/12 6/6/6 
f 14/14/14 16/16/16 13/13/13 
f 15/15/15 17/17/17 14/14/14 
f 16/16/16 14/14/14 17/17/17 
f 17/17/17 15/15/15 18/18/18 
f 18/18/18 15/15/15 6/6/6 
f 18/18/18 19/19/19 17/17/17 
f 19/19/19 16/16/16 17/17/17 
f 19/19/19 18/18/18 20/20/20 
f 20/20/20 18/18/18 6/6/6 
f 16/16/16 19/19/19 21/21/21 
f 20/20/20 22/22/22 19/19/19 
f 22/22/22 21/21/21 19/19/19 
f 22/22/22 20/20/20 23/23/23 
f 23/23/23 20/20/20 6/6/6 
f 24/24/24 21/21/21 22/22/22 
f 23/23/23 25/25/25 22/22/22 
f 25/25/25 24/24/24 22/22/22 
f 25/25/25 23/23/23 26/26/26 
f 26/26/26 23/23/23 6/6/6 
f 27/27/27 24/24/24 25/25/25 
f 26/26/26 28/28/28 25/25/25 
f 28/28/28 27/27/27 25/25/25 
f 28/28/28 26/26/26 29/29/29 
f 29/29/29 26/26/26 6/6/6 
f 28/28/28 30/30/30 27/27/27 
f 29/29/29 31/31/31 28/28/28 
f 28/28/28 31/31/31 30/30/30 
f 31/31/31 29/29/29 32/32/32 
f 32/32/32 29/29/29 6/6/6 
f 32/32/32 33/33/33 31/31/31 
f 31/31/31 34/34/34 30/30/30 
f 34/34/34 31/31/31 33/33/33 
f 30/30/30 35/35/35 27/27/27 
f 34/34/34 36/36/36 30/30/30 
f 36/36/36 35/35/35 30/30/30 
f 35/35/35 37/37/37 27/27/27 
f 27/27/27 37/37/37 24/24/24 
f 38/38/38 39/39/39 40/40/40 
f 40/40/40 41/41/41 38/38/38 
f 42/42/42 40/40/40 39/39/39 
f 39/39/39 43/43/43 42/42/42 
f 41/41/41 40/40/40 44/44/44 
f 42/42/42 43/43/43 45/45/45 
f 44/44/44 46/46/46 41/41/41 
f 40/40/40 42/42/42 47/47/47 
f 47/47/47 44/44/44 40/40/40 
f 47/47/47 42/42/42 45/45/45 
f 46/46/46 44/44/44 48/48/48 
f 44/44/44 47/47/47 49/49/49 
f 49/49/49 48/48/48 44/44/44 
f 49/49/49 47/47/47 45/45/45 
f 48/48/48 50/50/50 46/46/46 
f 48/48/48 49/49/49 51/51/51 
f 51/51/51 49/49/49 45/45/45 
f 50/50/50 48/48/48 52/52/52 
f 51/51/51 52/52/52 48/48/48 
f 52/52/52 53/53/53 50/50/50 
f 52/52/52 51/51/51 54/54/54 
f 54/54/54 51/51/51 45/45/45 
f 53/53/53 52/52/52 55/55/55 
f 54/54/54 55/55/55 52/52/52 
f 55/55/55 56/56/56 53/53/53 
f 55/55/55 54/54/54 57/57/57 
f 57/57/57 54/54/54 45/45/45 
f 56/56/56 55/55/55 58/58/58 
f 57/57/57 58/58/58 55/55/55 
f 58/58/58 59/59/59 56/56/56 
f 58/58/58 57/57/57 60/60/60 
f 60/60/60 57/57/57 45/45/45 
f 59/59/59 58/58/58 61/61/61 
f 60/60/60 61/61/61 58/58/58 
f 61/61/61 62/62/62 59/59/59 
f 63/63/63 60/60/60 45/45/45 
f 61/61/61 60/60/60 63/63/63 
f 62/62/62 61/61/61 64/64/64 
f 63/63/63 64/64/64 61/61/61 
f 64/64/64 65/65/65 62/62/62 
f 66/66/66 63/63/63 45/45/45 
f 64/64/64 63/63/63 66/66/66 
f 65/65/65 64/64/64 67/67/67 
f 66/66/66 67/67/67 64/64/64 
f 67/67/67 68/68/68 65/65/65 
f 68/68/68 67/67/67 69/69/69 
f 67/67/67 66/66/66 70/70/70 
f 70/70/70 66/66/66 45/45/45 
f 70/70/70 69/69/69 67/67/67 
f 71/71/71 70/70/70 45/45/45 
f 69/69/69 70/70/70 71/71/71 
f 72/72/72 73/73/73 74/74/74 
f 75/75/75 72/72/72 76/76/76 
f 74/74/74 76/76/76 72/72/72 
f 75/75/75 76/76/76 77/77/77 
f 75/75/75 77/77/77 78/78/78 
f 78/78/78 77/77/77 79/79/79 
f 77/77/77 80/80/80 79/79/79 
f 81/81/81 74/74/74 73/73/73 
f 73/73/73 82/82/82 81/81/81 
f 76/76/76 83/83/83 77/77/77 
f 77/77/77 83/83/83 80/80/80 
f 76/76/76 74/74/74 84/84/84 
f 76/76/76 84/84/84 83/83/83 
f 74/74/74 81/81/81 85/85/85 
f 85/85/85 84/84/84 74/74/74 
f 86/86/86 81/81/81 82/82/82 
f 87/87/87 85/85/85 81/81/81 
f 81/81/81 86/86/86 87/87/87 
f 84/84/84 85/85/85 88/88/88 
f 88/88/88 83/83/83 84/84/84 
f 85/85/85 87/87/87 89/89/89 
f 85/85/85 89/89/89 88/88/88 
f 87/87/87 86/86/86 6/6/6 
f 89/89/89 87/87/87 6/6/6 
f 82/82/82 90/90/90 86/86/86 
f 86/86/86 90/90/90 6/6/6 
f 90/90/90 82/82/82 91/91/91 
f 83/83/83 88/88/88 92/92/92 
f 92/92/92 80/80/80 83/83/83 
f 88/88/88 89/89/89 93/93/93 
f 88/88/88 93/93/93 92/92/92 
f 93/93/93 89/89/89 6/6/6 
f 90/90/90 91/91/91 94/94/94 
f 90/90/90 94/94/94 6/6/6 
f 80/80/80 92/92/92 95/95/95 
f 96/96/96 80/80/80 95/95/95 
f 92/92/92 93/93/93 97/97/97 
f 92/92/92 97/97/97 95/95/95 
f 97/97/97 93/93/93 6/6/6 
f 95/95/95 98/98/98 96/96/96 
f 98/98/98 95/95/95 97/97/97 
f 99/99/99 96/96/96 98/98/98 
f 98/98/98 97/97/97 6/6/6 
f 99/99/99 98/98/98 6/6/6 
f 94/94/94 91/91/91 100/100/100 
f 91/91/91 101/101/101 100/100/100 
f 101/101/101 102/102/102 100/100/100 
f 94/94/94 100/100/100 103/103/103 
f 94/94/94 103/103/103 6/6/6 
f 100/100/100 102/102/102 104/104/104 
f 100/100/100 104/104/104 103/103/103 
f 102/102/102 105/105/105 104/104/104 
f 103/103/103 104/104/104 106/106/106 
f 105/105/105 106/106/106 104/104/104 
f 103/103/103 106/106/106 6/6/6 
f 106/106/106 105/105/105 107/107/107 
f 106/106/106 107/107/107 6/6/6 
f 108/108/108 107/107/107 105/105/105 
f 107/107/107 108/108/108 109/109/109 
f 107/107/107 109/109/109 6/6/6 
f 110/110/110 109/109/109 108/108/108 
f 109/109/109 110/110/110 111/111/111 
f 109/109/109 111/111/111 6/6/6 
f 110/110/110 112/112/112 111/111/111 
f 111/111/111 112/112/112 6/6/6 
f 112/112/112 110/110/110 113/113/113 
f 112/112/112 114/114/114 6/6/6 
f 113/113/113 114/114/114 112/112/112 
f 114/114/114 113/113/113 115/115/115 
f 113/113/113 116/116/116 115/115/115 
f 114/114/114 117/117/117 6/6/6 
f 115/115/115 117/117/117 114/114/114 
f 116/116/116 118/118/118 115/115/115 
f 117/117/117 115/115/115 118/118/118 
f 118/118/118 116/116/116 119/119/119 
f 119/119/119 33/33/33 118/118/118 
f 118/118/118 120/120/120 117/117/117 
f 117/117/117 120/120/120 6/6/6 
f 120/120/120 118/118/118 33/33/33 
f 120/120/120 32/32/32 6/6/6 
f 33/33/33 32/32/32 120/120/120 
f 121/121/121 122/122/122 123/123/123 
f 122/122/122 121/121/121 124/124/124 
f 123/123/123 125/125/125 121/121/121 
f 125/125/125 123/123/123 126/126/126 
f 127/127/127 124/124/124 121/121/121 
f 124/124/124 127/127/127 128/128/128 
f 129/129/129 128/128/128 127/127/127 
f 121/121/121 130/130/130 127/127/127 
f 130/130/130 121/121/121 125/125/125 
f 127/127/127 131/131/131 129/129/129 
f 131/131/131 127/127/127 130/130/130 
f 132/132/132 129/129/129 131/131/131 
f 126/126/126 133/133/133 125/125/125 
f 133/133/133 126/126/126 134/134/134 
f 125/125/125 135/135/135 130/130/130 
f 135/135/135 125/125/125 133/133/133 
f 130/130/130 136/136/136 131/131/131 
f 136/136/136 130/130/130 135/135/135 
f 131/131/131 137/137/137 132/132/132 
f 131/131/131 136/136/136 137/137/137 
f 138/138/138 132/132/132 137/137/137 
f 137/137/137 139/139/139 138/138/138 
f 139/139/139 137/137/137 140/140/140 
f 136/136/136 140/140/140 137/137/137 
f 140/140/140 141/141/141 139/139/139 
f 135/135/135 142/142/142 136/136/136 
f 136/136/136 142/142/142 140/140/140 
f 140/140/140 143/143/143 141/141/141 
f 142/142/142 143/143/143 140/140/140 
f 143/143/143 144/144/144 141/141/141 
f 142/142/142 135/135/135 145/145/145 
f 133/133/133 145/145/145 135/135/135 
f 142/142/142 146/146/146 143/143/143 
f 145/145/145 146/146/146 142/142/142 
f 143/143/143 147/147/147 144/144/144 
f 146/146/146 147/147/147 143/143/143 
f 147/147/147 148/148/148 144/144/144 
f 146/146/146 149/149/149 147/147/147 
f 147/147/147 150/150/150 148/148/148 
f 149/149/149 150/150/150 147/147/147 
f 150/150/150 151/151/151 148/148/148 
f 150/150/150 152/152/152 151/151/151 
f 152/152/152 150/150/150 153/153/153 
f 149/149/149 153/153/153 150/150/150 
f 153/153/153 154/154/154 152/152/152 
f 155/155/155 149/149/149 146/146/146 
f 146/146/146 145/145/145 155/155/155 
f 153/153/153 149/149/149 156/156/156 
f 154/154/154 153/153/153 157/157/157 
f 156/156/156 157/157/157 153/153/153 
f 157/157/157 158/158/158 154/154/154 
f 159/159/159 156/156/156 149/149/149 
f 149/149/149 155/155/155 159/159/159 
f 157/157/157 156/156/156 160/160/160 
f 158/158/158 157/157/157 161/161/161 
f 160/160/160 161/161/161 157/157/157 
f 161/161/161 162/162/162 158/158/158 
f 162/162/162 161/161/161 163/163/163 
f 164/164/164 163/163/163 161/161/161 
f 161/161/161 160/160/160 164/164/164 
f 163/163/163 164/164/164 165/165/165 
f 166/166/166 165/165/165 164/164/164 
f 164/164/164 167/167/167 166/166/166 
f 167/167/167 164/164/164 160/160/160 
f 168/168/168 166/166/166 167/167/167 
f 169/169/169 160/160/160 156/156/156 
f 160/160/160 169/169/169 167/167/167 
f 156/156/156 159/159/159 169/169/169 
f 167/167/167 170/170/170 168/168/168 
f 170/170/170 167/167/167 169/169/169 
f 171/171/171 168/168/168 170/170/170 
f 170/170/170 172/172/172 171/171/171 
f 173/173/173 170/170/170 169/169/169 
f 172/172/172 170/170/170 173/173/173 
f 173/173/173 169/169/169 159/159/159 
f 173/173/173 174/174/174 172/172/172 
f 175/175/175 173/173/173 159/159/159 
f 174/174/174 173/173/173 175/175/175 
f 175/175/175 159/159/159 155/155/155 
f 176/176/176 174/174/174 175/175/175 
f 177/177/177 175/175/175 155/155/155 
f 176/176/176 175/175/175 177/177/177 
f 177/177/177 155/155/155 145/145/145 
f 178/178/178 176/176/176 177/177/177 
f 179/179/179 177/177/177 145/145/145 
f 178/178/178 177/177/177 179/179/179 
f 145/145/145 133/133/133 179/179/179 
f 180/180/180 178/178/178 179/179/179 
f 134/134/134 179/179/179 133/133/133 
f 179/179/179 134/134/134 180/180/180 
f 36/36/36 181/181/181 35/35/35 
f 37/37/37 182/182/182 24/24/24 
f 24/24/24 182/182/182 21/21/21 
f 182/182/182 16/16/16 21/21/21 
f 35/35/35 183/183/183 37/37/37 
f 181/181/181 183/183/183 35/35/35 
f 37/37/37 184/184/184 182/182/182 
f 183/183/183 184/184/184 37/37/37 
f 16/16/16 182/182/182 185/185/185 
f 184/184/184 185/185/185 182/182/182 
f 185/185/185 13/13/13 16/16/16 
f 13/13/13 185/185/185 186/186/186 
f 186/186/186 10/10/10 13/13/13 
f 185/185/185 184/184/184 187/187/187 
f 187/187/187 186/186/186 185/185/185 
f 10/10/10 186/186/186 188/188/188 
f 188/188/188 8/8/8 10/10/10 
f 8/8/8 188/188/188 189/189/189 
f 190/190/190 188/188/188 186/186/186 
f 186/186/186 187/187/187 190/190/190 
f 191/191/191 189/189/189 188/188/188 
f 188/188/188 190/190/190 191/191/191 
f 189/189/189 191/191/191 192/192/192 
f 191/191/191 193/193/193 192/192/192 
f 191/191/191 194/194/194 193/193/193 
f 190/190/190 194/194/194 191/191/191 
f 194/194/194 195/195/195 193/193/193 
f 187/187/187 196/196/196 190/190/190 
f 190/190/190 196/196/196 194/194/194 
f 194/194/194 197/197/197 195/195/195 
f 196/196/196 197/197/197 194/194/194 
f 195/195/195 197/197/197 41/41/41 
f 187/187/187 198/198/198 196/196/196 
f 184/184/184 198/198/198 187/187/187 
f 199/199/199 197/197/197 196/196/196 
f 198/198/198 199/199/199 196/196/196 
f 197/197/197 38/38/38 41/41/41 
f 199/199/199 38/38/38 197/197/197 
f 198/198/198 184/184/184 200/200/200 
f 183/183/183 200/200/200 184/184/184 
f 201/201/201 199/199/199 198/198/198 
f 200/200/200 201/201/201 198/198/198 
f 200/200/200 183/183/183 202/202/202 
f 201/201/201 203/203/203 199/199/199 
f 199/199/199 203/203/203 38/38/38 
f 204/204/204 201/201/201 200/200/200 
f 202/202/202 204/204/204 200/200/200 
f 181/181/181 202/202/202 183/183/183 
f 204/204/204 205/205/205 201/201/201 
f 205/205/205 203/203/203 201/201/201 
f 204/204/204 202/202/202 206/206/206 
f 207/207/207 205/205/205 204/204/204 
f 206/206/206 207/207/207 204/204/204 
f 208/208/208 205/205/205 207/207/207 
f 209/209/209 203/203/203 205/205/205 
f 205/205/205 208/208/208 209/209/209 
f 203/203/203 209/209/209 39/39/39 
f 39/39/39 38/38/38 203/203/203 
f 210/210/210 209/209/209 208/208/208 
f 43/43/43 39/39/39 209/209/209 
f 209/209/209 210/210/210 43/43/43 
f 207/207/207 211/211/211 208/208/208 
f 211/211/211 210/210/210 208/208/208 
f 211/211/211 207/207/207 212/212/212 
f 207/207/207 206/206/206 212/212/212 
f 210/210/210 211/211/211 213/213/213 
f 43/43/43 210/210/210 45/45/45 
f 210/210/210 213/213/213 45/45/45 
f 214/214/214 213/213/213 211/211/211 
f 212/212/212 214/214/214 211/211/211 
f 213/213/213 214/214/214 215/215/215 
f 213/213/213 215/215/215 45/45/45 
f 214/214/214 212/212/212 216/216/216 
f 206/206/206 216/216/216 212/212/212 
f 217/217/217 215/215/215 214/214/214 
f 216/216/216 217/217/217 214/214/214 
f 215/215/215 217/217/217 218/218/218 
f 215/215/215 218/218/218 45/45/45 
f 217/217/217 216/216/216 219/219/219 
f 216/216/216 206/206/206 220/220/220 
f 220/220/220 219/219/219 216/216/216 
f 202/202/202 220/220/220 206/206/206 
f 219/219/219 221/221/221 217/217/217 
f 221/221/221 218/218/218 217/217/217 
f 220/220/220 202/202/202 222/222/222 
f 202/202/202 181/181/181 222/222/222 
f 219/219/219 220/220/220 223/223/223 
f 222/222/222 223/223/223 220/220/220 
f 221/221/221 219/219/219 224/224/224 
f 223/223/223 224/224/224 219/219/219 
f 218/218/218 221/221/221 225/225/225 
f 218/218/218 225/225/225 45/45/45 
f 224/224/224 226/226/226 221/221/221 
f 226/226/226 225/225/225 221/221/221 
f 224/224/224 223/223/223 227/227/227 
f 223/223/223 222/222/222 228/228/228 
f 228/228/228 227/227/227 223/223/223 
f 229/229/229 222/222/222 181/181/181 
f 229/229/229 228/228/228 222/222/222 
f 229/229/229 181/181/181 36/36/36 
f 230/230/230 229/229/229 36/36/36 
f 34/34/34 230/230/230 36/36/36 
f 231/231/231 228/228/228 229/229/229 
f 231/231/231 229/229/229 230/230/230 
f 227/227/227 228/228/228 232/232/232 
f 231/231/231 232/232/232 228/228/228 
f 227/227/227 233/233/233 224/224/224 
f 226/226/226 224/224/224 233/233/233 
f 232/232/232 234/234/234 227/227/227 
f 233/233/233 227/227/227 234/234/234 
f 235/235/235 236/236/236 237/237/237 
f 236/236/236 235/235/235 238/238/238 
f 238/238/238 235/235/235 45/45/45 
f 238/238/238 239/239/239 236/236/236 
f 237/237/237 71/71/71 235/235/235 
f 235/235/235 71/71/71 45/45/45 
f 240/240/240 237/237/237 236/236/236 
f 239/239/239 238/238/238 241/241/241 
f 241/241/241 238/238/238 45/45/45 
f 242/242/242 236/236/236 239/239/239 
f 236/236/236 242/242/242 240/240/240 
f 241/241/241 243/243/243 239/239/239 
f 239/239/239 244/244/244 242/242/242 
f 244/244/244 239/239/239 243/243/243 
f 243/243/243 241/241/241 245/245/245 
f 245/245/245 241/241/241 45/45/45 
f 243/243/243 246/246/246 244/244/244 
f 245/245/245 247/247/247 243/243/243 
f 246/246/246 243/243/243 247/247/247 
f 248/248/248 245/245/245 45/45/45 
f 247/247/247 245/245/245 248/248/248 
f 249/249/249 247/247/247 248/248/248 
f 249/249/249 248/248/248 45/45/45 
f 249/249/249 250/250/250 247/247/247 
f 247/247/247 251/251/251 246/246/246 
f 251/251/251 247/247/247 250/250/250 
f 252/252/252 244/244/244 246/246/246 
f 251/251/251 252/252/252 246/246/246 
f 244/244/244 252/252/252 253/253/253 
f 253/253/253 242/242/242 244/244/244 
f 254/254/254 250/250/250 249/249/249 
f 254/254/254 249/249/249 45/45/45 
f 242/242/242 253/253/253 255/255/255 
f 255/255/255 240/240/240 242/242/242 
f 256/256/256 253/253/253 252/252/252 
f 257/257/257 255/255/255 253/253/253 
f 253/253/253 256/256/256 257/257/257 
f 255/255/255 257/257/257 258/258/258 
f 240/240/240 255/255/255 259/259/259 
f 258/258/258 259/259/259 255/255/255 
f 259/259/259 260/260/260 240/240/240 
f 237/237/237 240/240/240 260/260/260 
f 260/260/260 259/259/259 261/261/261 
f 260/260/260 69/69/69 237/237/237 
f 262/262/262 261/261/261 259/259/259 
f 259/259/259 258/258/258 262/262/262 
f 261/261/261 262/262/262 263/263/263 
f 262/262/262 264/264/264 263/263/263 
f 71/71/71 237/237/237 69/69/69 
f 69/69/69 260/260/260 68/68/68 
f 262/262/262 265/265/265 264/264/264 
f 258/258/258 265/265/265 262/262/262 
f 265/265/265 266/266/266 264/264/264 
f 258/258/258 267/267/267 265/265/265 
f 257/257/257 267/267/267 258/258/258 
f 265/265/265 268/268/268 266/266/266 
f 267/267/267 268/268/268 265/265/265 
f 268/268/268 269/269/269 266/266/266 
f 257/257/257 270/270/270 267/267/267 
f 267/267/267 271/271/271 268/268/268 
f 270/270/270 271/271/271 267/267/267 
f 256/256/256 270/270/270 257/257/257 
f 271/271/271 272/272/272 268/268/268 
f 268/268/268 272/272/272 269/269/269 
f 272/272/272 273/273/273 269/269/269 
f 273/273/273 274/274/274 269/269/269 
f 271/271/271 275/275/275 272/272/272 
f 270/270/270 79/79/79 271/271/271 
f 79/79/79 275/275/275 271/271/271 
f 256/256/256 78/78/78 270/270/270 
f 78/78/78 79/79/79 270/270/270 
f 275/275/275 276/276/276 272/272/272 
f 273/273/273 272/272/272 276/276/276 
f 79/79/79 80/80/80 275/275/275 
f 274/274/274 273/273/273 277/277/277 
f 277/277/277 278/278/278 274/274/274 
f 276/276/276 275/275/275 96/96/96 
f 80/80/80 96/96/96 275/275/275 
f 276/276/276 279/279/279 273/273/273 
f 278/278/278 277/277/277 280/280/280 
f 96/96/96 99/99/99 276/276/276 
f 279/279/279 276/276/276 99/99/99 
f 280/280/280 281/281/281 278/278/278 
f 282/282/282 273/273/273 279/279/279 
f 273/273/273 282/282/282 277/277/277 
f 279/279/279 99/99/99 6/6/6 
f 282/282/282 279/279/279 6/6/6 
f 283/283/283 277/277/277 282/282/282 
f 283/283/283 280/280/280 277/277/277 
f 283/283/283 282/282/282 6/6/6 
f 284/284/284 280/280/280 283/283/283 
f 284/284/284 283/283/283 6/6/6 
f 281/281/281 280/280/280 285/285/285 
f 284/284/284 285/285/285 280/280/280 
f 286/286/286 281/281/281 285/285/285 
f 287/287/287 285/285/285 284/284/284 
f 287/287/287 286/286/286 285/285/285 
f 287/287/287 284/284/284 6/6/6 
f 286/286/286 288/288/288 281/281/281 
f 286/286/286 287/287/287 289/289/289 
f 289/289/289 287/287/287 6/6/6 
f 286/286/286 290/290/290 288/288/288 
f 289/289/289 290/290/290 286/286/286 
f 290/290/290 291/291/291 288/288/288 
f 290/290/290 292/292/292 291/291/291 
f 289/289/289 293/293/293 290/290/290 
f 292/292/292 290/290/290 293/293/293 
f 293/293/293 289/289/289 294/294/294 
f 294/294/294 289/289/289 6/6/6 
f 292/292/292 293/293/293 295/295/295 
f 294/294/294 295/295/295 293/293/293 
f 295/295/295 1/1/1 292/292/292 
f 295/295/295 294/294/294 4/4/4 
f 4/4/4 294/294/294 6/6/6 
f 1/1/1 295/295/295 2/2/2 
f 4/4/4 2/2/2 295/295/295 
f 296/296/296 232/232/232 231/231/231 
f 297/297/297 226/226/226 233/233/233 
f 296/296/296 298/298/298 232/232/232 
f 234/234/234 232/232/232 298/298/298 
f 299/299/299 296/296/296 231/231/231 
f 299/299/299 231/231/231 230/230/230 
f 300/300/300 298/298/298 296/296/296 
f 299/299/299 300/300/300 296/296/296 
f 301/301/301 234/234/234 298/298/298 
f 298/298/298 300/300/300 301/301/301 
f 302/302/302 233/233/233 234/234/234 
f 234/234/234 301/301/301 302/302/302 
f 233/233/233 302/302/302 297/297/297 
f 303/303/303 299/299/299 230/230/230 
f 303/303/303 230/230/230 34/34/34 
f 33/33/33 303/303/303 34/34/34 
f 303/303/303 304/304/304 299/299/299 
f 300/300/300 299/299/299 304/304/304 
f 33/33/33 119/119/119 303/303/303 
f 304/304/304 303/303/303 119/119/119 
f 304/304/304 305/305/305 300/300/300 
f 305/305/305 301/301/301 300/300/300 
f 119/119/119 306/306/306 304/304/304 
f 305/305/305 304/304/304 306/306/306 
f 301/301/301 305/305/305 307/307/307 
f 307/307/307 302/302/302 301/301/301 
f 306/306/306 308/308/308 305/305/305 
f 308/308/308 307/307/307 305/305/305 
f 306/306/306 119/119/119 116/116/116 
f 308/308/308 306/306/306 309/309/309 
f 116/116/116 309/309/309 306/306/306 
f 302/302/302 307/307/307 310/310/310 
f 307/307/307 308/308/308 311/311/311 
f 311/311/311 310/310/310 307/307/307 
f 310/310/310 297/297/297 302/302/302 
f 312/312/312 311/311/311 308/308/308 
f 309/309/309 312/312/312 308/308/308 
f 310/310/310 311/311/311 313/313/313 
f 297/297/297 310/310/310 314/314/314 
f 313/313/313 314/314/314 310/310/310 
f 315/315/315 313/313/313 311/311/311 
f 311/311/311 312/312/312 315/315/315 
f 314/314/314 313/313/313 316/316/316 
f 313/313/313 315/315/315 317/317/317 
f 317/317/317 316/316/316 313/313/313 
f 318/318/318 317/317/317 315/315/315 
f 319/319/319 315/315/315 312/312/312 
f 315/315/315 319/319/319 318/318/318 
f 312/312/312 320/320/320 319/319/319 
f 321/321/321 314/314/314 316/316/316 
f 312/312/312 309/309/309 322/322/322 
f 320/320/320 312/312/312 322/322/322 
f 323/323/323 322/322/322 309/309/309 
f 309/309/309 116/116/116 323/323/323 
f 322/322/322 324/324/324 320/320/320 
f 322/322/322 323/323/323 325/325/325 
f 324/324/324 322/322/322 325/325/325 
f 116/116/116 113/113/113 323/323/323 
f 113/113/113 325/325/325 323/323/323 
f 325/325/325 108/108/108 324/324/324 
f 326/326/326 320/320/320 324/324/324 
f 324/324/324 105/105/105 326/326/326 
f 105/105/105 324/324/324 108/108/108 
f 320/320/320 326/326/326 327/327/327 
f 327/327/327 319/319/319 320/320/320 
f 102/102/102 327/327/327 326/326/326 
f 105/105/105 102/102/102 326/326/326 
f 319/319/319 327/327/327 328/328/328 
f 108/108/108 325/325/325 110/110/110 
f 325/325/325 113/113/113 110/110/110 
f 328/328/328 318/318/318 319/319/319 
f 329/329/329 328/328/328 327/327/327 
f 327/327/327 102/102/102 329/329/329 
f 318/318/318 328/328/328 330/330/330 
f 328/328/328 329/329/329 331/331/331 
f 331/331/331 330/330/330 328/328/328 
f 101/101/101 329/329/329 102/102/102 
f 332/332/332 331/331/331 329/329/329 
f 329/329/329 101/101/101 332/332/332 
f 331/331/331 332/332/332 333/333/333 
f 330/330/330 331/331/331 334/334/334 
f 333/333/333 334/334/334 331/331/331 
f 335/335/335 318/318/318 330/330/330 
f 336/336/336 330/330/330 334/334/334 
f 330/330/330 336/336/336 335/335/335 
f 318/318/318 335/335/335 337/337/337 
f 317/317/317 318/318/318 337/337/337 
f 337/337/337 338/338/338 317/317/317 
f 316/316/316 317/317/317 338/338/338 
f 339/339/339 337/337/337 335/335/335 
f 340/340/340 316/316/316 338/338/338 
f 338/338/338 337/337/337 341/341/341 
f 337/337/337 339/339/339 341/341/341 
f 342/342/342 338/338/338 341/341/341 
f 338/338/338 342/342/342 340/340/340 
f 316/316/316 340/340/340 321/321/321 
f 341/341/341 343/343/343 342/342/342 
f 343/343/343 341/341/341 339/339/339 
f 344/344/344 340/340/340 342/342/342 
f 342/342/342 343/343/343 345/345/345 
f 342/342/342 345/345/345 344/344/344 
f 346/346/346 321/321/321 340/340/340 
f 340/340/340 344/344/344 346/346/346 
f 344/344/344 345/345/345 45/45/45 
f 346/346/346 344/344/344 45/45/45 
f 343/343/343 347/347/347 345/345/345 
f 345/345/345 347/347/347 45/45/45 
f 348/348/348 321/321/321 346/346/346 
f 348/348/348 346/346/346 45/45/45 
f 348/348/348 349/349/349 321/321/321 
f 314/314/314 321/321/321 349/349/349 
f 349/349/349 297/297/297 314/314/314 
f 350/350/350 349/349/349 348/348/348 
f 350/350/350 348/348/348 45/45/45 
f 297/297/297 349/349/349 351/351/351 
f 350/350/350 351/351/351 349/349/349 
f 226/226/226 297/297/297 351/351/351 
f 352/352/352 351/351/351 350/350/350 
f 351/351/351 352/352/352 226/226/226 
f 352/352/352 350/350/350 45/45/45 
f 225/225/225 226/226/226 352/352/352 
f 225/225/225 352/352/352 45/45/45 
f 353/353/353 347/347/347 343/343/343 
f 339/339/339 353/353/353 343/343/343 
f 353/353/353 354/354/354 347/347/347 
f 347/347/347 354/354/354 45/45/45 
f 353/353/353 339/339/339 355/355/355 
f 335/335/335 355/355/355 339/339/339 
f 355/355/355 335/335/335 336/336/336 
f 355/355/355 356/356/356 353/353/353 
f 356/356/356 354/354/354 353/353/353 
f 336/336/336 357/357/357 355/355/355 
f 356/356/356 355/355/355 357/357/357 
f 357/357/357 336/336/336 358/358/358 
f 334/334/334 358/358/358 336/336/336 
f 354/354/354 356/356/356 359/359/359 
f 354/354/354 359/359/359 45/45/45 
f 357/357/357 360/360/360 356/356/356 
f 360/360/360 359/359/359 356/356/356 
f 358/358/358 361/361/361 357/357/357 
f 360/360/360 357/357/357 361/361/361 
f 358/358/358 334/334/334 362/362/362 
f 359/359/359 360/360/360 363/363/363 
f 359/359/359 363/363/363 45/45/45 
f 334/334/334 333/333/333 362/362/362 
f 364/364/364 363/363/363 360/360/360 
f 361/361/361 364/364/364 360/360/360 
f 363/363/363 364/364/364 365/365/365 
f 363/363/363 365/365/365 45/45/45 
f 364/364/364 361/361/361 366/366/366 
f 367/367/367 365/365/365 364/364/364 
f 366/366/366 367/367/367 364/364/364 
f 365/365/365 367/367/367 368/368/368 
f 365/365/365 368/368/368 45/45/45 
f 367/367/367 366/366/366 369/369/369 
f 370/370/370 368/368/368 367/367/367 
f 369/369/369 370/370/370 367/367/367 
f 368/368/368 370/370/370 254/254/254 
f 368/368/368 254/254/254 45/45/45 
f 254/254/254 370/370/370 250/250/250 
f 371/371/371 250/250/250 370/370/370 
f 370/370/370 369/369/369 371/371/371 
f 250/250/250 371/371/371 251/251/251 
f 371/371/371 372/372/372 251/251/251 
f 251/251/251 372/372/372 252/252/252 
f 372/372/372 256/256/256 252/252/252 
f 371/371/371 373/373/373 372/372/372 
f 369/369/369 373/373/373 371/371/371 
f 372/372/372 374/374/374 256/256/256 
f 373/373/373 374/374/374 372/372/372 
f 374/374/374 78/78/78 256/256/256 
f 369/369/369 375/375/375 373/373/373 
f 366/366/366 375/375/375 369/369/369 
f 373/373/373 376/376/376 374/374/374 
f 375/375/375 376/376/376 373/373/373 
f 374/374/374 75/75/75 78/78/78 
f 376/376/376 75/75/75 374/374/374 
f 366/366/366 377/377/377 375/375/375 
f 361/361/361 377/377/377 366/366/366 
f 375/375/375 378/378/378 376/376/376 
f 377/377/377 378/378/378 375/375/375 
f 361/361/361 379/379/379 377/377/377 
f 361/361/361 358/358/358 379/379/379 
f 362/362/362 379/379/379 358/358/358 
f 379/379/379 380/380/380 377/377/377 
f 377/377/377 380/380/380 378/378/378 
f 379/379/379 362/362/362 381/381/381 
f 379/379/379 381/381/381 380/380/380 
f 362/362/362 382/382/382 381/381/381 
f 382/382/382 362/362/362 333/333/333 
f 381/381/381 383/383/383 380/380/380 
f 381/381/381 382/382/382 383/383/383 
f 380/380/380 384/384/384 378/378/378 
f 380/380/380 383/383/383 384/384/384 
f 333/333/333 385/385/385 382/382/382 
f 385/385/385 383/383/383 382/382/382 
f 385/385/385 333/333/333 332/332/332 
f 386/386/386 384/384/384 383/383/383 
f 383/383/383 385/385/385 386/386/386 
f 378/378/378 384/384/384 387/387/387 
f 378/378/378 387/387/387 376/376/376 
f 332/332/332 388/388/388 385/385/385 
f 388/388/388 386/386/386 385/385/385 
f 388/388/388 332/332/332 101/101/101 
f 376/376/376 387/387/387 75/75/75 
f 384/384/384 386/386/386 389/389/389 
f 389/389/389 387/387/387 384/384/384 
f 386/386/386 388/388/388 390/390/390 
f 390/390/390 389/389/389 386/386/386 
f 388/388/388 101/101/101 91/91/91 
f 91/91/91 390/390/390 388/388/388 
f 387/387/387 389/389/389 72/72/72 
f 72/72/72 75/75/75 387/387/387 
f 389/389/389 390/390/390 73/73/73 
f 73/73/73 72/72/72 389/389/389 
f 82/82/82 73/73/73 390/390/390 
f 390/390/390 91/91/91 82/82/82 

